<svg width="13" height="15" viewBox="0 0 13 15" fill="none" xmlns="http://www.w3.org/2000/svg">
<path d="M11 0.490234H1.64844V1.66602H11V0.490234ZM1.64844 14.4902H11V13.3145H1.64844V14.4902ZM11 2.81445H1.64844C1.33854 2.81445 1.06966 2.92839 0.841797 3.15625C0.613932 3.38411 0.5 3.66211 0.5 3.99023V10.9902C0.5 11.3184 0.613932 11.5964 0.841797 11.8242C1.06966 12.0521 1.33854 12.166 1.64844 12.166H11C11.3099 12.166 11.5788 12.0521 11.8066 11.8242C12.0345 11.5964 12.1484 11.3184 12.1484 10.9902V3.99023C12.1484 3.66211 12.0345 3.38411 11.8066 3.15625C11.5788 2.92839 11.3099 2.81445 11 2.81445ZM6.32422 4.42773C6.6888 4.42773 6.9987 4.55534 7.25391 4.81055C7.50911 5.06575 7.63672 5.37565 7.63672 5.74023C7.63672 6.10482 7.50911 6.41471 7.25391 6.66992C6.9987 6.92513 6.6888 7.05273 6.32422 7.05273C5.95964 7.05273 5.64974 6.92513 5.39453 6.66992C5.13932 6.41471 5.01172 6.10482 5.01172 5.74023C5.01172 5.37565 5.13932 5.06575 5.39453 4.81055C5.64974 4.55534 5.95964 4.42773 6.32422 4.42773ZM9.25 10.416H3.39844V9.54102C3.39844 9.23112 3.58073 8.95768 3.94531 8.7207C4.25521 8.52018 4.65625 8.35612 5.14844 8.22852C5.56771 8.11914 5.95964 8.06445 6.32422 8.06445C6.6888 8.06445 7.08073 8.11914 7.5 8.22852C7.99219 8.35612 8.39323 8.52018 8.70312 8.7207C9.06771 8.95768 9.25 9.23112 9.25 9.54102V10.416Z" fill="#8F5FE8"/>
</svg>
